<svg xmlns="http://www.w3.org/2000/svg" width="2400" height="2400" viewBox="0 0 2400 2400" version="1.1"><path d="M 1605 165.662 C 1555.775 198.500, 1364.638 325.841, 1180.250 448.643 L 845 671.919 844.997 600.710 L 844.995 529.500 712.663 441.156 L 580.331 352.812 539.916 379.688 C 517.687 394.469, 458.005 433.999, 407.289 467.532 L 315.078 528.500 315.068 869 L 315.057 1209.500 377.023 1250.747 L 438.988 1291.994 439.244 1374.698 L 439.500 1457.403 563 1540.045 L 686.500 1622.686 686.752 1870.745 L 687.004 2118.804 818.752 2206.053 C 891.213 2254.040, 951.175 2293.463, 952 2293.661 C 952.825 2293.859, 1180.075 2143.136, 1457 1958.720 L 1960.500 1623.419 1961 1540.024 L 1961.500 1456.629 2023.250 1415.131 L 2085 1373.633 2085 868.971 L 2085 364.310 1891.278 235.503 C 1784.731 164.660, 1696.868 106.530, 1696.028 106.327 C 1695.188 106.124, 1654.225 132.825, 1605 165.662 M 1447.991 310.804 C 797.743 743.820, 734.498 786.168, 734.684 788.432 C 734.727 788.944, 783.713 821.506, 843.543 860.792 L 952.324 932.220 1432.624 611.860 C 1696.790 435.662, 1912.942 291.217, 1912.962 290.872 C 1912.993 290.363, 1698.175 147.104, 1696.096 146.247 C 1695.758 146.108, 1584.111 220.158, 1447.991 310.804 M 1448.743 640.922 C 1185.976 816.203, 970.537 960.063, 969.989 960.611 C 969.335 961.265, 969.080 1011.029, 969.247 1105.804 L 969.500 1250.001 1014.250 1221.342 L 1059 1192.683 1059 1110.348 L 1059 1028.013 1063.250 1024.933 C 1074.020 1017.130, 1323.528 850.667, 1324.454 850.667 C 1325.031 850.667, 1352.991 868.992, 1386.589 891.389 L 1447.674 932.112 1641.745 803.556 C 1748.484 732.850, 1836.082 675, 1836.409 675 C 1836.736 675, 1836.890 831.035, 1836.751 1021.744 L 1836.500 1368.488 1712.750 1453.991 L 1589 1539.494 1589 1624.537 L 1589 1709.580 1465.250 1789.460 C 1397.188 1833.394, 1341.275 1869.659, 1341 1870.050 C 1340.138 1871.272, 1201.790 1963, 1200.808 1963 C 1200.295 1963, 1148.491 1928.970, 1085.688 1887.378 C 1022.884 1845.786, 970.938 1811.538, 970.250 1811.271 C 969.252 1810.884, 969 1854.435, 969 2026.991 L 969 2243.196 971.845 2241.348 C 973.410 2240.332, 1188.946 2096.850, 1450.815 1922.500 L 1926.940 1605.500 1926.970 1522.414 L 1927 1439.328 1988.619 1397.937 C 2022.509 1375.171, 2050.412 1356.085, 2050.624 1355.522 C 2050.837 1354.960, 2050.896 1141.099, 2050.756 880.275 L 2050.500 406.050 1989.344 446.525 C 1955.708 468.786, 1927.923 487, 1927.599 487 C 1927.276 487, 1926.896 449.926, 1926.756 404.614 L 1926.500 322.229 1448.743 640.922 M 1960 373.548 C 1960 419.931, 1960.159 425.153, 1961.559 424.616 C 1964.519 423.480, 2037.976 374.498, 2037.738 373.819 C 2037.559 373.307, 1968.233 326.928, 1961.250 322.648 C 1960.256 322.039, 1960 332.473, 1960 373.548 M 537.938 421.337 C 514.597 436.841, 465.398 469.465, 428.608 493.835 L 361.715 538.144 471.009 611.006 L 580.304 683.868 585.902 680.082 C 590.606 676.900, 638.378 645.320, 778.235 552.934 L 798.969 539.237 689.672 466.193 L 580.375 393.148 537.938 421.337 M 349 880.765 L 349 1191.649 410.500 1232.431 L 472 1273.213 472 1355.951 L 472 1438.689 596.498 1521.999 L 720.996 1605.308 721.248 1853.311 L 721.500 2101.314 828.500 2172.140 L 935.500 2242.966 935.752 1995.983 C 935.891 1860.142, 936.197 1749, 936.433 1749 C 936.670 1749, 992.131 1785.589, 1059.681 1830.309 L 1182.500 1911.619 1182.756 1829.705 C 1182.958 1764.870, 1183.271 1747.891, 1184.256 1748.273 C 1184.940 1748.538, 1212.457 1766.626, 1245.404 1788.468 C 1278.352 1810.310, 1305.915 1828.414, 1306.656 1828.698 C 1307.784 1829.131, 1307.962 1778.778, 1307.752 1518.913 L 1307.500 1208.610 1200.500 1137.949 L 1093.500 1067.287 1093 1314.479 L 1092.500 1561.670 828.278 1385.585 L 564.057 1209.500 564.028 961.252 L 564 713.005 457.750 642.192 C 399.313 603.245, 350.938 571.042, 350.250 570.630 C 349.251 570.032, 349 632.326, 349 880.765 M 703.762 641.839 L 597.025 712.500 597.012 939.750 C 597.006 1064.737, 597.209 1167, 597.464 1167 C 597.786 1167, 682.766 1112.248, 686.802 1109.440 C 686.968 1109.324, 687.093 1035.041, 687.081 944.365 L 687.058 779.500 749.029 737.186 L 811 694.873 811 632.936 C 811 598.871, 810.888 571.040, 810.750 571.089 C 810.612 571.138, 762.468 602.975, 703.762 641.839 M 1695.750 807.636 L 1589 878.312 1589 1035.439 L 1589 1192.565 1695.750 1260.832 L 1802.500 1329.099 1802.753 1181.050 C 1802.893 1099.622, 1802.893 966.391, 1802.753 884.980 L 1802.500 736.961 1695.750 807.636 M 720.444 964.618 C 720.849 1044.303, 721.253 1109.540, 721.340 1109.590 C 721.428 1109.639, 769.078 1141.487, 827.230 1180.363 C 885.381 1219.239, 933.643 1251.310, 934.480 1251.631 C 935.836 1252.151, 936 1236.510, 936 1106.744 L 936 961.275 828.829 890.887 C 769.884 852.174, 721.218 820.328, 720.682 820.118 C 720.048 819.870, 719.965 870.558, 720.444 964.618 M 1215.924 962.520 C 1156.291 1002.407, 1107.396 1035.370, 1107.270 1035.771 C 1106.977 1036.696, 1323.403 1179.516, 1324.607 1179.193 C 1326.382 1178.717, 1541 1035.761, 1541 1035.055 C 1541 1034.537, 1354.849 909.861, 1326.924 891.676 L 1324.348 889.998 1215.924 962.520 M 1516.139 926.575 C 1495.040 940.620, 1477.940 952.243, 1478.139 952.405 C 1478.338 952.566, 1495.713 964.267, 1516.750 978.407 L 1555 1004.115 1555 952.557 C 1555 924.201, 1554.888 901.009, 1554.750 901.019 C 1554.612 901.030, 1537.238 912.530, 1516.139 926.575 M 1447.263 1137.833 L 1341.025 1208.500 1341.013 1519.285 C 1341.001 1814.989, 1341.085 1830.022, 1342.750 1829.065 C 1343.713 1828.512, 1391.750 1797.516, 1449.500 1760.185 L 1554.500 1692.310 1554.752 1379.655 C 1554.890 1207.695, 1554.665 1067.037, 1554.252 1067.083 C 1553.838 1067.128, 1505.693 1098.966, 1447.263 1137.833 M 656.268 1168.689 C 615.555 1195.108, 609.276 1199.502, 610.768 1200.530 C 611.721 1201.186, 712.850 1268.608, 835.500 1350.357 L 1058.500 1498.993 1058.757 1431.918 C 1058.898 1395.028, 1058.898 1335.048, 1058.757 1298.630 L 1058.500 1232.417 1013 1261.700 C 987.975 1277.806, 963.386 1293.448, 958.359 1296.460 L 949.218 1301.937 893.859 1264.838 C 805.333 1205.511, 704.162 1137.998, 703.817 1138.020 C 703.643 1138.031, 682.246 1151.832, 656.268 1168.689 M 1589 1365.610 L 1589 1499.119 1599.250 1492.071 C 1687.309 1431.519, 1788.301 1361.233, 1788.288 1360.508 C 1788.279 1359.995, 1753.415 1337.283, 1710.812 1310.038 C 1668.210 1282.792, 1623.374 1254.110, 1611.176 1246.301 L 1589 1232.102 1589 1365.610 M 1217 1861.442 L 1217 1913.003 1255.500 1887.339 C 1276.675 1873.223, 1293.988 1861.410, 1293.974 1861.087 C 1293.952 1860.593, 1221.959 1812.550, 1218.250 1810.555 C 1217.257 1810.020, 1217 1820.502, 1217 1861.442" stroke="none" fill="#cc252d" fill-rule="evenodd"/><path d="M 1447.991 310.804 C 797.743 743.820, 734.498 786.168, 734.684 788.432 C 734.727 788.944, 783.713 821.506, 843.543 860.792 L 952.324 932.220 1432.624 611.860 C 1696.790 435.662, 1912.942 291.217, 1912.962 290.872 C 1912.993 290.363, 1698.175 147.104, 1696.096 146.247 C 1695.758 146.108, 1584.111 220.158, 1447.991 310.804 M 1448.743 640.922 C 1185.976 816.203, 970.537 960.063, 969.989 960.611 C 969.335 961.265, 969.080 1011.029, 969.247 1105.804 L 969.500 1250.001 1014.250 1221.342 L 1059 1192.683 1059 1110.348 L 1059 1028.013 1063.250 1024.933 C 1074.020 1017.130, 1323.528 850.667, 1324.454 850.667 C 1325.031 850.667, 1352.991 868.992, 1386.589 891.389 L 1447.674 932.112 1641.745 803.556 C 1748.484 732.850, 1836.082 675, 1836.409 675 C 1836.736 675, 1836.890 831.035, 1836.751 1021.744 L 1836.500 1368.488 1712.750 1453.991 L 1589 1539.494 1589 1624.537 L 1589 1709.580 1465.250 1789.460 C 1397.188 1833.394, 1341.275 1869.659, 1341 1870.050 C 1340.138 1871.272, 1201.790 1963, 1200.808 1963 C 1200.295 1963, 1148.491 1928.970, 1085.688 1887.378 C 1022.884 1845.786, 970.938 1811.538, 970.250 1811.271 C 969.252 1810.884, 969 1854.435, 969 2026.991 L 969 2243.196 971.845 2241.348 C 973.410 2240.332, 1188.946 2096.850, 1450.815 1922.500 L 1926.940 1605.500 1926.970 1522.414 L 1927 1439.328 1988.619 1397.937 C 2022.509 1375.171, 2050.412 1356.085, 2050.624 1355.522 C 2050.837 1354.960, 2050.896 1141.099, 2050.756 880.275 L 2050.500 406.050 1989.344 446.525 C 1955.708 468.786, 1927.923 487, 1927.599 487 C 1927.276 487, 1926.896 449.926, 1926.756 404.614 L 1926.500 322.229 1448.743 640.922 M 1960 373.548 C 1960 419.931, 1960.159 425.153, 1961.559 424.616 C 1964.519 423.480, 2037.976 374.498, 2037.738 373.819 C 2037.559 373.307, 1968.233 326.928, 1961.250 322.648 C 1960.256 322.039, 1960 332.473, 1960 373.548 M 537.938 421.337 C 514.597 436.841, 465.398 469.465, 428.608 493.835 L 361.715 538.144 471.009 611.006 L 580.304 683.868 585.902 680.082 C 590.606 676.900, 638.378 645.320, 778.235 552.934 L 798.969 539.237 689.672 466.193 L 580.375 393.148 537.938 421.337 M 349 880.765 L 349 1191.649 410.500 1232.431 L 472 1273.213 472 1355.951 L 472 1438.689 596.498 1521.999 L 720.996 1605.308 721.248 1853.311 L 721.500 2101.314 828.500 2172.140 L 935.500 2242.966 935.752 1995.983 C 935.891 1860.142, 936.197 1749, 936.433 1749 C 936.670 1749, 992.131 1785.589, 1059.681 1830.309 L 1182.500 1911.619 1182.756 1829.705 C 1182.958 1764.870, 1183.271 1747.891, 1184.256 1748.273 C 1184.940 1748.538, 1212.457 1766.626, 1245.404 1788.468 C 1278.352 1810.310, 1305.915 1828.414, 1306.656 1828.698 C 1307.784 1829.131, 1307.962 1778.778, 1307.752 1518.913 L 1307.500 1208.610 1200.500 1137.949 L 1093.500 1067.287 1093 1314.479 L 1092.500 1561.670 828.278 1385.585 L 564.057 1209.500 564.028 961.252 L 564 713.005 457.750 642.192 C 399.313 603.245, 350.938 571.042, 350.250 570.630 C 349.251 570.032, 349 632.326, 349 880.765 M 703.762 641.839 L 597.025 712.500 597.012 939.750 C 597.006 1064.737, 597.209 1167, 597.464 1167 C 597.786 1167, 682.766 1112.248, 686.802 1109.440 C 686.968 1109.324, 687.093 1035.041, 687.081 944.365 L 687.058 779.500 749.029 737.186 L 811 694.873 811 632.936 C 811 598.871, 810.888 571.040, 810.750 571.089 C 810.612 571.138, 762.468 602.975, 703.762 641.839 M 1695.750 807.636 L 1589 878.312 1589 1035.439 L 1589 1192.565 1695.750 1260.832 L 1802.500 1329.099 1802.753 1181.050 C 1802.893 1099.622, 1802.893 966.391, 1802.753 884.980 L 1802.500 736.961 1695.750 807.636 M 720.444 964.618 C 720.849 1044.303, 721.253 1109.540, 721.340 1109.590 C 721.428 1109.639, 769.078 1141.487, 827.230 1180.363 C 885.381 1219.239, 933.643 1251.310, 934.480 1251.631 C 935.836 1252.151, 936 1236.510, 936 1106.744 L 936 961.275 828.829 890.887 C 769.884 852.174, 721.218 820.328, 720.682 820.118 C 720.048 819.870, 719.965 870.558, 720.444 964.618 M 1215.924 962.520 C 1156.291 1002.407, 1107.396 1035.370, 1107.270 1035.771 C 1106.977 1036.696, 1323.403 1179.516, 1324.607 1179.193 C 1326.382 1178.717, 1541 1035.761, 1541 1035.055 C 1541 1034.537, 1354.849 909.861, 1326.924 891.676 L 1324.348 889.998 1215.924 962.520 M 1516.139 926.575 C 1495.040 940.620, 1477.940 952.243, 1478.139 952.405 C 1478.338 952.566, 1495.713 964.267, 1516.750 978.407 L 1555 1004.115 1555 952.557 C 1555 924.201, 1554.888 901.009, 1554.750 901.019 C 1554.612 901.030, 1537.238 912.530, 1516.139 926.575 M 1447.263 1137.833 L 1341.025 1208.500 1341.013 1519.285 C 1341.001 1814.989, 1341.085 1830.022, 1342.750 1829.065 C 1343.713 1828.512, 1391.750 1797.516, 1449.500 1760.185 L 1554.500 1692.310 1554.752 1379.655 C 1554.890 1207.695, 1554.665 1067.037, 1554.252 1067.083 C 1553.838 1067.128, 1505.693 1098.966, 1447.263 1137.833 M 656.268 1168.689 C 615.555 1195.108, 609.276 1199.502, 610.768 1200.530 C 611.721 1201.186, 712.850 1268.608, 835.500 1350.357 L 1058.500 1498.993 1058.757 1431.918 C 1058.898 1395.028, 1058.898 1335.048, 1058.757 1298.630 L 1058.500 1232.417 1013 1261.700 C 987.975 1277.806, 963.386 1293.448, 958.359 1296.460 L 949.218 1301.937 893.859 1264.838 C 805.333 1205.511, 704.162 1137.998, 703.817 1138.020 C 703.643 1138.031, 682.246 1151.832, 656.268 1168.689 M 1589 1365.610 L 1589 1499.119 1599.250 1492.071 C 1687.309 1431.519, 1788.301 1361.233, 1788.288 1360.508 C 1788.279 1359.995, 1753.415 1337.283, 1710.812 1310.038 C 1668.210 1282.792, 1623.374 1254.110, 1611.176 1246.301 L 1589 1232.102 1589 1365.610 M 1217 1861.442 L 1217 1913.003 1255.500 1887.339 C 1276.675 1873.223, 1293.988 1861.410, 1293.974 1861.087 C 1293.952 1860.593, 1221.959 1812.550, 1218.250 1810.555 C 1217.257 1810.020, 1217 1820.502, 1217 1861.442" stroke="none" fill="#fbfbfb" fill-rule="evenodd"/></svg>