<svg id="visual" viewBox="0 0 900 300" width="900" height="300" xmlns="http://www.w3.org/2000/svg" xmlns:xlink="http://www.w3.org/1999/xlink" version="1.1"><path d="M0 141L18.8 156.5C37.7 172 75.3 203 112.8 222.5C150.3 242 187.7 250 225.2 235.7C262.7 221.3 300.3 184.7 337.8 165.5C375.3 146.3 412.7 144.7 450.2 163.5C487.7 182.3 525.3 221.7 562.8 223.8C600.3 226 637.7 191 675.2 168.7C712.7 146.3 750.3 136.7 787.8 127.7C825.3 118.7 862.7 110.3 881.3 106.2L900 102L900 301L881.3 301C862.7 301 825.3 301 787.8 301C750.3 301 712.7 301 675.2 301C637.7 301 600.3 301 562.8 301C525.3 301 487.7 301 450.2 301C412.7 301 375.3 301 337.8 301C300.3 301 262.7 301 225.2 301C187.7 301 150.3 301 112.8 301C75.3 301 37.7 301 18.8 301L0 301Z" fill="#EDB13E" stroke-linecap="round" stroke-linejoin="miter"></path></svg>